<svg width="22" height="18" viewBox="0 0 22 18" fill="none" xmlns="http://www.w3.org/2000/svg">
<path d="M1.22222 17.0365C0.875926 17.0365 0.585852 16.9002 0.352 16.6276C0.117333 16.356 0 16.019 0 15.6168C0 15.2145 0.117333 14.8776 0.352 14.6059C0.585852 14.3334 0.875926 14.1971 1.22222 14.1971H20.7778C21.1241 14.1971 21.4141 14.3334 21.648 14.6059C21.8827 14.8776 22 15.2145 22 15.6168C22 16.019 21.8827 16.356 21.648 16.6276C21.4141 16.9002 21.1241 17.0365 20.7778 17.0365H1.22222ZM1.22222 9.93795C0.875926 9.93795 0.585852 9.80165 0.352 9.52907C0.117333 9.25743 0 8.92049 0 8.51824C0 8.11599 0.117333 7.77857 0.352 7.50599C0.585852 7.23435 0.875926 7.09853 1.22222 7.09853H20.7778C21.1241 7.09853 21.4141 7.23435 21.648 7.50599C21.8827 7.77857 22 8.11599 22 8.51824C22 8.92049 21.8827 9.25743 21.648 9.52907C21.4141 9.80165 21.1241 9.93795 20.7778 9.93795H1.22222ZM1.22222 2.83941C0.875926 2.83941 0.585852 2.70359 0.352 2.43196C0.117333 2.15937 0 1.82196 0 1.41971C0 1.01746 0.117333 0.68004 0.352 0.407456C0.585852 0.135819 0.875926 0 1.22222 0H20.7778C21.1241 0 21.4141 0.135819 21.648 0.407456C21.8827 0.68004 22 1.01746 22 1.41971C22 1.82196 21.8827 2.15937 21.648 2.43196C21.4141 2.70359 21.1241 2.83941 20.7778 2.83941H1.22222Z" fill="black"/>
</svg>
