<svg width="18" height="19" viewBox="0 0 18 19" fill="none" xmlns="http://www.w3.org/2000/svg">
<path d="M15 19C14.1667 19 13.4583 18.7229 12.875 18.1687C12.2917 17.6146 12 16.9417 12 16.15C12 16.0392 12.0083 15.9242 12.025 15.8051C12.0417 15.6867 12.0667 15.58 12.1 15.485L5.05 11.59C4.76667 11.8275 4.45 12.0134 4.1 12.1476C3.75 12.2825 3.38333 12.35 3 12.35C2.16667 12.35 1.45833 12.0729 0.875 11.5188C0.291667 10.9646 0 10.2917 0 9.5C0 8.70833 0.291667 8.03542 0.875 7.48125C1.45833 6.92708 2.16667 6.65 3 6.65C3.38333 6.65 3.75 6.71713 4.1 6.8514C4.45 6.9863 4.76667 7.1725 5.05 7.41L12.1 3.515C12.0667 3.42 12.0417 3.31328 12.025 3.19485C12.0083 3.07578 12 2.96083 12 2.85C12 2.05833 12.2917 1.38542 12.875 0.83125C13.4583 0.277083 14.1667 0 15 0C15.8333 0 16.5417 0.277083 17.125 0.83125C17.7083 1.38542 18 2.05833 18 2.85C18 3.64167 17.7083 4.31458 17.125 4.86875C16.5417 5.42292 15.8333 5.7 15 5.7C14.6167 5.7 14.25 5.63255 13.9 5.49765C13.55 5.36338 13.2333 5.1775 12.95 4.94L5.9 8.835C5.93333 8.93 5.95833 9.03672 5.975 9.15515C5.99167 9.27422 6 9.38917 6 9.5C6 9.61083 5.99167 9.72547 5.975 9.8439C5.95833 9.96297 5.93333 10.07 5.9 10.165L12.95 14.06C13.2333 13.8225 13.55 13.6363 13.9 13.5014C14.25 13.3671 14.6167 13.3 15 13.3C15.8333 13.3 16.5417 13.5771 17.125 14.1312C17.7083 14.6854 18 15.3583 18 16.15C18 16.9417 17.7083 17.6146 17.125 18.1687C16.5417 18.7229 15.8333 19 15 19Z" fill="#F9527D"/>
</svg>
